<svg xmlns="http://www.w3.org/2000/svg" viewBox="0 0 512 512" role="img" aria-labelledby="title desc">
  <title id="title">UCLA Sports MRI favicon</title>
  <desc id="desc">UCLA Sports MRI favicon with a dark MRI scan window and gold MSK imaging arc.</desc>
  <defs>
    <linearGradient id="bg" x1="72" y1="20" x2="444" y2="492" gradientUnits="userSpaceOnUse">
      <stop offset="0" stop-color="#002F4E"/>
      <stop offset="0.55" stop-color="#005587"/>
      <stop offset="1" stop-color="#2774AE"/>
    </linearGradient>
    <linearGradient id="screen" x1="116" y1="112" x2="396" y2="362" gradientUnits="userSpaceOnUse">
      <stop offset="0" stop-color="#1D2A36"/>
      <stop offset="0.56" stop-color="#071725"/>
      <stop offset="1" stop-color="#31495F"/>
    </linearGradient>
  </defs>
  <rect width="512" height="512" rx="108" fill="url(#bg)"/>
  <circle cx="398" cy="100" r="126" fill="#8BB8E8" opacity="0.14"/>
  <rect x="76" y="88" width="360" height="278" rx="52" fill="#F7FBFF"/>
  <rect x="108" y="118" width="296" height="218" rx="34" fill="url(#screen)"/>
  <path d="M140 246c28-53 68-79 116-79s88 26 116 79" fill="none" stroke="#FFD100" stroke-width="29" stroke-linecap="round"/>
  <path d="M148 279c32 28 68 42 108 42s76-14 108-42" fill="none" stroke="#D7EAF8" stroke-width="19" stroke-linecap="round"/>
  <circle cx="256" cy="236" r="48" fill="#2774AE" opacity="0.82"/>
  <circle cx="256" cy="236" r="29" fill="#D7EAF8" opacity="0.94"/>
  <path d="M256 188v96M208 236h96" stroke="#FFFFFF" stroke-width="7" stroke-linecap="round" opacity="0.86"/>
  <text x="256" y="449" fill="#FFFFFF" font-family="Arial Black, Arial, sans-serif" font-size="82" font-weight="900" text-anchor="middle" letter-spacing="0">MRI</text>
  <path d="M190 469h132" stroke="#FFD100" stroke-width="14" stroke-linecap="round"/>
</svg>
