<svg xmlns="http://www.w3.org/2000/svg" viewBox="0 0 512 512" role="img" aria-labelledby="title desc">
  <title id="title">UCLA Sports MRI maskable icon</title>
  <desc id="desc">Maskable UCLA Sports MRI home-screen icon with safe-zone centered MRI scan window, MSK imaging arcs, and MRI letters.</desc>
  <defs>
    <linearGradient id="bg" x1="72" y1="20" x2="444" y2="492" gradientUnits="userSpaceOnUse">
      <stop offset="0" stop-color="#002F4E"/>
      <stop offset="0.55" stop-color="#005587"/>
      <stop offset="1" stop-color="#2774AE"/>
    </linearGradient>
    <radialGradient id="glow" cx="68%" cy="20%" r="70%">
      <stop offset="0" stop-color="#8BB8E8" stop-opacity="0.38"/>
      <stop offset="0.58" stop-color="#2774AE" stop-opacity="0.12"/>
      <stop offset="1" stop-color="#002F4E" stop-opacity="0"/>
    </radialGradient>
    <linearGradient id="screen" x1="132" y1="112" x2="380" y2="326" gradientUnits="userSpaceOnUse">
      <stop offset="0" stop-color="#1D2A36"/>
      <stop offset="0.56" stop-color="#071725"/>
      <stop offset="1" stop-color="#31495F"/>
    </linearGradient>
    <filter id="softShadow" x="-20%" y="-20%" width="140%" height="150%" color-interpolation-filters="sRGB">
      <feDropShadow dx="0" dy="16" stdDeviation="16" flood-color="#001B2D" flood-opacity="0.34"/>
    </filter>
    <filter id="textShadow" x="-20%" y="-20%" width="140%" height="140%" color-interpolation-filters="sRGB">
      <feDropShadow dx="0" dy="5" stdDeviation="5" flood-color="#001B2D" flood-opacity="0.38"/>
    </filter>
  </defs>
  <rect width="512" height="512" fill="url(#bg)"/>
  <rect width="512" height="512" fill="url(#glow)"/>
  <circle cx="398" cy="100" r="126" fill="#8BB8E8" opacity="0.12"/>
  <circle cx="91" cy="407" r="116" fill="#FFD100" opacity="0.07"/>
  <g filter="url(#softShadow)">
    <rect x="88" y="88" width="336" height="274" rx="48" fill="#F7FBFF"/>
    <rect x="118" y="116" width="276" height="210" rx="31" fill="url(#screen)"/>
    <path d="M142 166h228" stroke="#D7EAF8" stroke-width="3" stroke-linecap="round" opacity="0.25"/>
    <path d="M142 207h228" stroke="#D7EAF8" stroke-width="3" stroke-linecap="round" opacity="0.15"/>
    <path d="M142 248h228" stroke="#D7EAF8" stroke-width="3" stroke-linecap="round" opacity="0.13"/>
    <path d="M142 289h228" stroke="#D7EAF8" stroke-width="3" stroke-linecap="round" opacity="0.15"/>
    <path d="M174 140v162" stroke="#D7EAF8" stroke-width="3" stroke-linecap="round" opacity="0.13"/>
    <path d="M215 140v162" stroke="#D7EAF8" stroke-width="3" stroke-linecap="round" opacity="0.09"/>
    <path d="M256 140v162" stroke="#D7EAF8" stroke-width="3" stroke-linecap="round" opacity="0.18"/>
    <path d="M297 140v162" stroke="#D7EAF8" stroke-width="3" stroke-linecap="round" opacity="0.09"/>
    <path d="M338 140v162" stroke="#D7EAF8" stroke-width="3" stroke-linecap="round" opacity="0.13"/>
    <path d="M150 239c26-48 61-72 106-72s80 24 106 72" fill="none" stroke="#FFD100" stroke-width="25" stroke-linecap="round"/>
    <path d="M158 270c30 26 63 39 98 39s68-13 98-39" fill="none" stroke="#D7EAF8" stroke-width="17" stroke-linecap="round"/>
    <circle cx="256" cy="231" r="44" fill="#2774AE" opacity="0.78"/>
    <circle cx="256" cy="231" r="27" fill="#D7EAF8" opacity="0.92"/>
    <path d="M256 188v86M213 231h86" stroke="#FFFFFF" stroke-width="7" stroke-linecap="round" opacity="0.84"/>
    <path d="M151 140h62" stroke="#FFD100" stroke-width="8" stroke-linecap="round"/>
    <path d="M338 140h22" stroke="#8BB8E8" stroke-width="8" stroke-linecap="round"/>
    <circle cx="370" cy="140" r="4.5" fill="#8BB8E8"/>
  </g>
  <g filter="url(#textShadow)">
    <text x="256" y="429" fill="#FFFFFF" font-family="Arial Black, Arial, sans-serif" font-size="76" font-weight="900" text-anchor="middle" letter-spacing="0">MRI</text>
    <path d="M196 449h120" stroke="#FFD100" stroke-width="13" stroke-linecap="round"/>
  </g>
</svg>
